<svg xmlns="http://www.w3.org/2000/svg" viewBox="0 0 100 100" preserveAspectRatio="xMidYMid" style="shape-rendering: auto; display: block; background: transparent;" width="198" height="198" xmlns:xlink="http://www.w3.org/1999/xlink"><g><g transform="rotate(0 50 50)">
  <rect fill="#000000" height="12" width="6" ry="3.96" rx="3" y="24" x="47">
    <animate repeatCount="indefinite" begin="-1.7628205128205128s" dur="1.923076923076923s" keyTimes="0;1" values="1;0" attributeName="opacity"></animate>
  </rect>
</g><g transform="rotate(30 50 50)">
  <rect fill="#000000" height="12" width="6" ry="3.96" rx="3" y="24" x="47">
    <animate repeatCount="indefinite" begin="-1.6025641025641024s" dur="1.923076923076923s" keyTimes="0;1" values="1;0" attributeName="opacity"></animate>
  </rect>
</g><g transform="rotate(60 50 50)">
  <rect fill="#000000" height="12" width="6" ry="3.96" rx="3" y="24" x="47">
    <animate repeatCount="indefinite" begin="-1.4423076923076923s" dur="1.923076923076923s" keyTimes="0;1" values="1;0" attributeName="opacity"></animate>
  </rect>
</g><g transform="rotate(90 50 50)">
  <rect fill="#000000" height="12" width="6" ry="3.96" rx="3" y="24" x="47">
    <animate repeatCount="indefinite" begin="-1.282051282051282s" dur="1.923076923076923s" keyTimes="0;1" values="1;0" attributeName="opacity"></animate>
  </rect>
</g><g transform="rotate(120 50 50)">
  <rect fill="#000000" height="12" width="6" ry="3.96" rx="3" y="24" x="47">
    <animate repeatCount="indefinite" begin="-1.1217948717948718s" dur="1.923076923076923s" keyTimes="0;1" values="1;0" attributeName="opacity"></animate>
  </rect>
</g><g transform="rotate(150 50 50)">
  <rect fill="#000000" height="12" width="6" ry="3.96" rx="3" y="24" x="47">
    <animate repeatCount="indefinite" begin="-0.9615384615384615s" dur="1.923076923076923s" keyTimes="0;1" values="1;0" attributeName="opacity"></animate>
  </rect>
</g><g transform="rotate(180 50 50)">
  <rect fill="#000000" height="12" width="6" ry="3.96" rx="3" y="24" x="47">
    <animate repeatCount="indefinite" begin="-0.8012820512820512s" dur="1.923076923076923s" keyTimes="0;1" values="1;0" attributeName="opacity"></animate>
  </rect>
</g><g transform="rotate(210 50 50)">
  <rect fill="#000000" height="12" width="6" ry="3.96" rx="3" y="24" x="47">
    <animate repeatCount="indefinite" begin="-0.641025641025641s" dur="1.923076923076923s" keyTimes="0;1" values="1;0" attributeName="opacity"></animate>
  </rect>
</g><g transform="rotate(240 50 50)">
  <rect fill="#000000" height="12" width="6" ry="3.96" rx="3" y="24" x="47">
    <animate repeatCount="indefinite" begin="-0.4807692307692307s" dur="1.923076923076923s" keyTimes="0;1" values="1;0" attributeName="opacity"></animate>
  </rect>
</g><g transform="rotate(270 50 50)">
  <rect fill="#000000" height="12" width="6" ry="3.96" rx="3" y="24" x="47">
    <animate repeatCount="indefinite" begin="-0.3205128205128205s" dur="1.923076923076923s" keyTimes="0;1" values="1;0" attributeName="opacity"></animate>
  </rect>
</g><g transform="rotate(300 50 50)">
  <rect fill="#000000" height="12" width="6" ry="3.96" rx="3" y="24" x="47">
    <animate repeatCount="indefinite" begin="-0.16025641025641024s" dur="1.923076923076923s" keyTimes="0;1" values="1;0" attributeName="opacity"></animate>
  </rect>
</g><g transform="rotate(330 50 50)">
  <rect fill="#000000" height="12" width="6" ry="3.96" rx="3" y="24" x="47">
    <animate repeatCount="indefinite" begin="0s" dur="1.923076923076923s" keyTimes="0;1" values="1;0" attributeName="opacity"></animate>
  </rect>
</g><g></g></g><!-- [ldio] generated by https://loading.io --></svg>